{"title":"Mercur S01 E02 - 720p x265 HEVC - DAN (ENG SUBS) [BRSHNKV]","magnet":"magnet:?xt=urn:btih:235998a99f27913fc5d4dc2d2237aa280f822d9f&dn=Mercur+S01+E02+-+720p+x265+HEVC+-+DAN+%28ENG+SUBS%29+%5BBRSHNKV%5D&tr=udp%3A%2F%2Ftracker.leechers-paradise.org%3A6969&tr=udp%3A%2F%2Fzer0day.ch%3A1337&tr=udp%3A%2F%2Fopen.demonii.com%3A1337&tr=udp%3A%2F%2Ftracker.coppersurfer.tk%3A6969&tr=udp%3A%2F%2Fexodus.desync.com%3A6969","uploader":"BRSHNKV","categoryP":"video","categoryS":"hd___tv_shows","size":"404416124","seeders":"6","leechers":"5","description":" <a href=\"https://www.imdb.com/title/tt6416550/?ref_=rvi_tt\" rel=\"nofollow\" target=\"_NEW\">https://www.imdb.com/title/tt6416550/?ref_=rvi_tt</a>\r\n\r\n\r\n\r\nTech: \r\n\r\nFormat : MPEG-4 \r\nFormat profile : Base Media / Version 2 \r\nCodec ID : mp42 \r\nFile size : 386 MiB \r\nDuration : 41mn 1s \r\nOverall bit rate mode : Variable \r\nOverall bit rate : 1 314 Kbps \r\nMovie name : Mercur S01 E02 - x265 HEVC [BRSHNKV] \r\nEncoded date : UTC 2018-04-14 21:13:01 \r\nTagged date : UTC 2018-04-14 21:13:01 \r\nWriting application : HandBrake 20160211184813-ffd8cb1-master 2016021301 \r\n\r\nVideo \r\nID : 1 \r\nFormat : HEVC \r\nFormat/Info : High Efficiency Video Coding \r\nFormat profile : Main <a href=\"/cdn-cgi/l/email-protection\" class=\"__cf_email__\" data-cfemail=\"8ebfbecec2bda0bf\">[email&#xA0;protected]</a>@Main \r\nCodec ID : hev1 \r\nCodec ID/Info : High Efficiency Video Coding \r\nDuration : 41mn 1s \r\nBit rate : 1 151 Kbps \r\nWidth : 1 024 pixels \r\nHeight : 576 pixels \r\nDisplay aspect ratio : 16:9 \r\nFrame rate mode : Constant \r\nFrame rate : 25.000 fps \r\nColor space : YUV \r\nChroma subsampling : 4:2:0 \r\nBit depth : 10 bits \r\nBits/(Pixel*Frame) : 0.078 \r\nStream size : 338 MiB (88%) \r\nWriting library : x265 1.9:[Mac OS X][clang 7.0.2][64 bit] 10bit \r\nEncoded date : UTC 2018-04-14 21:13:01 \r\nTagged date : UTC 2018-04-14 21:13:01 \r\nColor range : Limited \r\nColor primaries : BT.601 PAL \r\nTransfer characteristics : BT.709 \r\nMatrix coefficients : BT.601 \r\n\r\nAudio \r\nID : 2 \r\nFormat : AAC \r\nFormat/Info : Advanced Audio Codec \r\nFormat profile : LC \r\nCodec ID : 40 \r\nDuration : 41mn 1s \r\nBit rate mode : Variable \r\nBit rate : 157 Kbps \r\nChannel(s) : 2 channels \r\nChannel positions : Front: L R \r\nSampling rate : 48.0 KHz \r\nCompression mode : Lossy \r\nStream size : 46.2 MiB (12%) \r\nTitle : Stereo / Stereo \r\nLanguage : Danish \r\nEncoded date : UTC 2018-04-14 21:13:01 \r\nTagged date : UTC 2018-04-14 21:13:01","last_updated":"2018-04-17T13:21:52.120Z","parsed":{"xt":"urn:btih:235998a99f27913fc5d4dc2d2237aa280f822d9f","dn":"Mercur S01 E02 - 720p x265 HEVC - DAN (ENG SUBS) [BRSHNKV]","tr":["udp://exodus.desync.com:6969","udp://open.demonii.com:1337","udp://tracker.coppersurfer.tk:6969","udp://tracker.leechers-paradise.org:6969","udp://zer0day.ch:1337"],"infoHash":"235998a99f27913fc5d4dc2d2237aa280f822d9f","infoHashBuffer":{"type":"Buffer","data":[35,89,152,169,159,39,145,63,197,212,220,45,34,55,170,40,15,130,45,159]},"name":"Mercur S01 E02 - 720p x265 HEVC - DAN (ENG SUBS) [BRSHNKV]","announce":["udp://exodus.desync.com:6969","udp://open.demonii.com:1337","udp://tracker.coppersurfer.tk:6969","udp://tracker.leechers-paradise.org:6969","udp://zer0day.ch:1337"],"urlList":[]}}